HIERARCHY
ROOT hip
{
  OFFSET 0 0 0
  CHANNELS 6 Xposition Yposition Zposition Zrotation Yrotation Xrotation
  JOINT abdomen
  {
    OFFSET 0 20.6881 -0.73152
    CHANNELS 3 Zrotation Xrotation Yrotation
    JOINT chest
    {
      OFFSET 0 11.7043 -0.48768
      CHANNELS 3 Zrotation Xrotation Yrotation
      JOINT neck
      {
        OFFSET 0 22.1894 -2.19456
        CHANNELS 3 Zrotation Xrotation Yrotation
        JOINT head
        {
          OFFSET -0.24384 7.07133 1.2192
          CHANNELS 3 Zrotation Xrotation Yrotation
          JOINT leftEye
          {
            OFFSET 4.14528 8.04674 8.04672
            CHANNELS 3 Zrotation Xrotation Yrotation
            End Site
            {
              OFFSET 1 0 0
            }
          }
          JOINT rightEye
          {
            OFFSET -3.6576 8.04674 8.04672
            CHANNELS 3 Zrotation Xrotation Yrotation
            End Site
            {
              OFFSET 1 0 0
            }
          }
        }
      }
      JOINT rCollar
      {
        OFFSET -2.68224 19.2634 -4.8768
        CHANNELS 3 Zrotation Xrotation Yrotation
        JOINT rShldr
        {
          OFFSET -8.77824 -1.95073 1.46304
          CHANNELS 3 Zrotation Xrotation Yrotation
          JOINT rForeArm
          {
            OFFSET -28.1742 -1.7115 0.48768
            CHANNELS 3 Zrotation Xrotation Yrotation
            JOINT rHand
            {
              OFFSET -22.5879 0.773209 7.07136
              CHANNELS 3 Zrotation Xrotation Yrotation
              JOINT rThumb1
              {
                OFFSET -1.2192 -0.487915 3.41376
                CHANNELS 3 Zrotation Xrotation Yrotation
                JOINT rThumb2
                {
                  OFFSET -3.37035 -0.52449 3.41376
                  CHANNELS 3 Zrotation Xrotation Yrotation
                  End Site
                  {
                    OFFSET -1.78271 -1.18214 1.43049
                  }
                }
              }
              JOINT rIndex1
              {
                OFFSET -7.75947 0.938293 5.60832
                CHANNELS 3 Zrotation Xrotation Yrotation
                JOINT rIndex2
                {
                  OFFSET -2.54057 -0.884171 1.56538
                  CHANNELS 3 Zrotation Xrotation Yrotation
                  End Site
                  {
                    OFFSET -1.62519 -0.234802 1.16502
                  }
                }
              }
              JOINT rMid1
              {
                OFFSET -8.24714 1.18213 3.41376
                CHANNELS 3 Zrotation Xrotation Yrotation
                JOINT rMid2
                {
                  OFFSET -3.10165 -0.590103 1.0647
                  CHANNELS 3 Zrotation Xrotation Yrotation
                  End Site
                  {
                    OFFSET -2.48547 -0.328903 0.83742
                  }
                }
              }
              JOINT rRing1
              {
                OFFSET -8.82822 0.546677 1.51678
                CHANNELS 3 Zrotation Xrotation Yrotation
                JOINT rRing2
                {
                  OFFSET -2.60934 -0.819778 -0.0198488
                  CHANNELS 3 Zrotation Xrotation Yrotation
                  End Site
                  {
                    OFFSET -2.33842 -0.294052 0.168128
                  }
                }
              }
              JOINT rPinky1
              {
                OFFSET -8.27202 -0.0477905 -0.4584
                CHANNELS 3 Zrotation Xrotation Yrotation
                JOINT rPinky2
                {
                  OFFSET -1.82734 -0.647385 -0.700984
                  CHANNELS 3 Zrotation Xrotation Yrotation
                  End Site
                  {
                    OFFSET -1.69225 -0.51767 -0.607171
                  }
                }
              }
            }
          }
        }
      }
      JOINT lCollar
      {
        OFFSET 2.68224 19.2634 -4.8768
        CHANNELS 3 Zrotation Xrotation Yrotation
        JOINT lShldr
        {
          OFFSET 8.77824 -1.95073 1.46304
          CHANNELS 3 Zrotation Xrotation Yrotation
          JOINT lForeArm
          {
            OFFSET 28.1742 -1.7115 0.48768
            CHANNELS 3 Zrotation Xrotation Yrotation
            JOINT lHand
            {
              OFFSET 22.5879 0.773209 7.07136
              CHANNELS 3 Zrotation Xrotation Yrotation
              JOINT lThumb1
              {
                OFFSET 1.2192 -0.487915 3.41376
                CHANNELS 3 Zrotation Xrotation Yrotation
                JOINT lThumb2
                {
                  OFFSET 3.37035 -0.52449 3.41376
                  CHANNELS 3 Zrotation Xrotation Yrotation
                  End Site
                  {
                    OFFSET 1.78271 -1.18214 1.43049
                  }
                }
              }
              JOINT lIndex1
              {
                OFFSET 7.75947 0.938293 5.60832
                CHANNELS 3 Zrotation Xrotation Yrotation
                JOINT lIndex2
                {
                  OFFSET 2.54057 -0.884171 1.56538
                  CHANNELS 3 Zrotation Xrotation Yrotation
                  End Site
                  {
                    OFFSET 1.62519 -0.234802 1.16502
                  }
                }
              }
              JOINT lMid1
              {
                OFFSET 8.24714 1.18213 3.41376
                CHANNELS 3 Zrotation Xrotation Yrotation
                JOINT lMid2
                {
                  OFFSET 3.10165 -0.590103 1.0647
                  CHANNELS 3 Zrotation Xrotation Yrotation
                  End Site
                  {
                    OFFSET 2.48547 -0.328903 0.83742
                  }
                }
              }
              JOINT lRing1
              {
                OFFSET 8.82822 0.546677 1.51678
                CHANNELS 3 Zrotation Xrotation Yrotation
                JOINT lRing2
                {
                  OFFSET 2.60934 -0.819778 -0.0198488
                  CHANNELS 3 Zrotation Xrotation Yrotation
                  End Site
                  {
                    OFFSET 2.33842 -0.294052 0.168128
                  }
                }
              }
              JOINT lPinky1
              {
                OFFSET 8.27202 -0.0477905 -0.4584
                CHANNELS 3 Zrotation Xrotation Yrotation
                JOINT lPinky2
                {
                  OFFSET 1.82734 -0.647385 -0.700984
                  CHANNELS 3 Zrotation Xrotation Yrotation
                  End Site
                  {
                    OFFSET 1.69225 -0.51767 -0.607171
                  }
                }
              }
            }
          }
        }
      }
    }
  }
  JOINT rButtock
  {
    OFFSET -8.77824 4.35084 1.2192
    CHANNELS 3 Zrotation Xrotation Yrotation
    JOINT rThigh
    {
      OFFSET 0 -1.70687 -2.19456
      CHANNELS 3 Zrotation Xrotation Yrotation
      JOINT rShin
      {
        OFFSET 0 -36.8199 0.73152
        CHANNELS 3 Zrotation Xrotation Yrotation
        JOINT rFoot
        {
          OFFSET 0.73152 -45.1104 -5.12064
          CHANNELS 3 Zrotation Xrotation Yrotation
          End Site
          {
            OFFSET -1.1221 -3.69964 12.103
          }
        }
      }
    }
  }
  JOINT lButtock
  {
    OFFSET 8.77824 4.35084 1.2192
    CHANNELS 3 Zrotation Xrotation Yrotation
    JOINT lThigh
    {
      OFFSET 0 -1.70687 -2.19456
      CHANNELS 3 Zrotation Xrotation Yrotation
      JOINT lShin
      {
        OFFSET 0 -36.8199 0.73152
        CHANNELS 3 Zrotation Xrotation Yrotation
        JOINT lFoot
        {
          OFFSET -0.73152 -45.1104 -5.12064
          CHANNELS 3 Zrotation Xrotation Yrotation
          End Site
          {
            OFFSET 1.1221 -3.69964 12.103
          }
        }
      }
    }
  }
}
MOTION
Frames:	7
Frame Time:	0.00833333
-190.33 84.0179 -10.4113 0.0 0.0 0.0 -1.65551 -0.00357567 -0.0452723 -0.4571 0.000154957 -0.0791638 2.84683e-15 7.95139e-16 -3.72721e-16 8.41418e-15 9.54166e-15 -1.14767e-15 -0.0 0.0 0.0 -0.0 0.0 0.0 1.43984e-15 -1.26182e-17 -4.96962e-17 3.13924e-14 -2.11209e-16 -2.98177e-15 5.22009e-13 -1.63202e-13 -6.99722e-14 6.00135e-12 1.12562e-13 -7.69694e-13 1.41476e-11 -1.10897e-13 -1.81292e-12 2.44247e-11 -1.94014e-13 -3.13603e-12 1.41519e-11 -1.09332e-13 -1.82882e-12 7.73091 5.47488 0.417314 1.41477e-11 -1.10922e-13 -1.80974e-12 2.90554 0.965183 0.102902 1.41586e-11 -1.10922e-13 -1.81212e-12 10.2786 0.731801 0.0259123 1.41437e-11 -1.09332e-13 -1.80656e-12 2.22167 -0.733487 -0.20892 1.24385e-15 -1.3977e-17 -3.47873e-16 2.86637e-14 8.69683e-17 -4.77083e-15 5.26531e-13 1.5048e-13 -1.01778e-13 5.99117e-12 -1.79503e-13 -7.25166e-13 1.41384e-11 -6.81939e-14 -1.8161e-12 2.44235e-11 -1.24042e-13 -3.13444e-12 1.41344e-11 -6.59965e-14 -1.80337e-12 -7.73091 5.47488 -0.417314 1.4138e-11 -6.7885e-14 -1.8161e-12 -2.90554 0.965183 -0.102902 1.41348e-11 -6.7885e-14 -1.81689e-12 -10.2786 0.731801 -0.0259123 1.41439e-11 -6.63941e-14 -1.82882e-12 -2.22167 -0.733487 0.20892 -2.03217e-16 0.0 -3.88251e-19 -0.803411 -1.9234 -0.00371741 -0.00881875 -2.07862 -0.0725738 -0.452064 3.99778 0.131436 2.03217e-16 0.0 3.88251e-19 -1.71758 -6.77988 0.164469 -0.00322852 6.71845 -0.0840749 0.482106 0.0572848 -0.0558965
-185.66 82.7782 -14.0933 -15.1451 75.9507 -11.0654 -0.7573 6.59555 -0.913967 0.539693 -0.555915 -0.210748 -0.472359 4.44918 1.40052 -2.41611 -12.9576 1.97202 -0.0 0.0 0.0 -0.0 0.0 0.0 -3.70798e-14 -1.31748e-13 1.28504e-13 16.8171 17.4125 -2.54734 -7.11984 -4.13957 9.96389 0.000696475 -0.599444 -0.0842313 4.41367e-10 1.71727e-10 -4.5833e-10 7.6581e-10 2.97697e-10 -7.94169e-10 4.4137e-10 1.71731e-10 -4.58344e-10 7.73091 5.47488 0.417314 4.41364e-10 1.7173e-10 -4.58325e-10 2.90554 0.965183 0.102902 4.41375e-10 1.7173e-10 -4.58329e-10 10.2786 0.731801 0.0259123 4.41361e-10 1.71731e-10 -4.5832e-10 2.22167 -0.733487 -0.20892 -3.7192e-14 -1.31748e-13 1.28234e-13 -21.8752 9.65028 4.99776 8.26934 -5.17792 -11.01 -0.00893381 -2.09898 0.29428 5.85574e-10 -8.60661e-11 4.83972e-10 1.00745e-09 -1.46955e-10 8.42507e-10 5.85568e-10 -8.60658e-11 4.83988e-10 -7.73091 5.47488 -0.417314 5.85573e-10 -8.60678e-11 4.83971e-10 -2.90554 0.965183 -0.102902 5.85569e-10 -8.60677e-11 4.8397e-10 -10.2786 0.731801 -0.0259123 5.85579e-10 -8.60663e-11 4.83959e-10 -2.22167 -0.733487 0.20892 -2.03217e-16 0.0 -3.88251e-19 0.368903 -1.80188 3.12908 -0.00338055 2.46804 0.0101475 -0.432446 -2.79683 0.106951 2.03217e-16 0.0 3.88251e-19 0.574471 -12.9895 -0.230942 0.0333162 14.4628 -0.161303 0.166178 -2.53946 -2.35892
-185.655 82.7809 -14.0901 -15.2252 75.9661 -11.1653 0.41664 13.5687 -1.87398 1.59208 -1.14311 -0.35029 -1.21262 9.1415 2.90997 -3.8953 -26.6008 4.42426 -0.0 0.0 0.0 -0.0 0.0 0.0 -7.93007e-14 -2.871e-13 2.72764e-13 36.6251 35.703 -6.15423 -13.1017 -8.09788 20.6591 -0.000496896 -1.21826 -0.171217 8.52102e-10 3.56226e-10 -9.73995e-10 1.47911e-09 6.17588e-10 -1.68767e-09 8.52103e-10 3.56232e-10 -9.74007e-10 7.73091 5.47488 0.417314 8.52095e-10 3.56232e-10 -9.73988e-10 2.90554 0.965183 0.102902 8.52106e-10 3.56232e-10 -9.73992e-10 10.2786 0.731801 0.0259123 8.52094e-10 3.56233e-10 -9.7398e-10 2.22167 -0.733487 -0.20892 -7.93222e-14 -2.871e-13 2.72524e-13 -46.925 19.5988 10.7657 14.8761 -10.0121 -22.9245 0.00516487 -4.32861 0.608222 1.22793e-09 -1.83966e-10 1.03957e-09 2.11233e-09 -3.14127e-10 1.80945e-09 1.22792e-09 -1.83968e-10 1.03959e-09 -7.73091 5.47488 -0.417314 1.22793e-09 -1.8397e-10 1.03957e-09 -2.90554 0.965183 -0.102902 1.22793e-09 -1.8397e-10 1.03957e-09 -10.2786 0.731801 -0.0259123 1.22794e-09 -1.83969e-10 1.03956e-09 -2.22167 -0.733487 0.20892 -2.03217e-16 0.0 -3.88251e-19 1.59279 -1.66984 6.43996 -0.0119927 7.27441 0.0983347 -0.417193 -9.98273 0.0847352 2.03217e-16 0.0 3.88251e-19 2.89885 -19.5545 -0.674033 0.0967155 22.6503 -0.252542 -0.394904 -5.26716 -4.808
-185.648 82.7838 -14.0895 -15.2554 75.9848 -11.2262 1.67156 19.7745 -2.79834 2.52561 -1.66801 -0.474087 -2.08428 13.3152 4.30484 -3.94211 -38.6618 7.39148 -0.0 0.0 0.0 -0.0 0.0 0.0 -1.14119e-13 -3.95217e-13 3.85612e-13 57.4841 51.6907 -11.8143 -17.1937 -10.9174 30.4199 -0.00320028 -1.79832 -0.252805 1.29581e-09 5.15403e-10 -1.37137e-09 2.24858e-09 8.9348e-10 -2.37624e-09 1.29581e-09 5.15411e-10 -1.37138e-09 7.73091 5.47488 0.417314 1.2958e-09 5.15411e-10 -1.37136e-09 2.90554 0.965183 0.102902 1.29581e-09 5.15411e-10 -1.37136e-09 10.2786 0.731801 0.0259123 1.2958e-09 5.15411e-10 -1.37135e-09 2.22167 -0.733487 -0.20892 -1.14064e-13 -3.95216e-13 3.85399e-13 -71.1744 28.011 16.7962 19.0758 -13.2358 -33.9106 0.038214 -6.29627 0.887601 1.72844e-09 -2.58062e-10 1.45555e-09 2.9735e-09 -4.40617e-10 2.53379e-09 1.72844e-09 -2.58066e-10 1.45557e-09 -7.73091 5.47488 -0.417314 1.72844e-09 -2.58068e-10 1.45555e-09 -2.90554 0.965183 -0.102902 1.72844e-09 -2.58067e-10 1.45555e-09 -10.2786 0.731801 -0.0259123 1.72845e-09 -2.58066e-10 1.45554e-09 -2.22167 -0.733487 0.20892 -2.03217e-16 0.0 -3.88251e-19 2.67353 -1.5459 9.39347 -0.0323526 11.5613 0.1791 -0.410069 -16.3861 0.060703 2.03217e-16 0.0 3.88251e-19 4.87733 -25.4048 -1.10898 0.178996 29.9511 -0.348063 -1.09506 -7.68206 -7.02134
-185.641 82.7854 -14.0972 -15.1165 76.0042 -11.1134 2.66893 24.0805 -3.49363 3.16743 -2.03724 -0.558363 -2.80849 16.223 5.31522 -2.88361 -46.9598 10.3119 -0.0 0.0 0.0 -0.0 0.0 0.0 -1.30431e-13 -3.85244e-13 4.19933e-13 76.1455 62.3278 -19.5109 -19.4412 -12.3249 37.3402 -0.00638808 -2.28147 -0.32081 1.82193e-09 6.11271e-10 -1.473e-09 3.15849e-09 1.05937e-09 -2.55244e-09 1.82193e-09 6.1128e-10 -1.47301e-09 7.73091 5.47488 0.417314 1.82192e-09 6.1128e-10 -1.47299e-09 2.90554 0.965183 0.102902 1.82193e-09 6.1128e-10 -1.47299e-09 10.2786 0.731801 0.0259123 1.82192e-09 6.11279e-10 -1.47298e-09 2.22167 -0.733487 -0.20892 -1.30333e-13 -3.85244e-13 4.19734e-13 -89.33 33.471 21.766 21.2161 -14.6343 -41.7331 0.0715522 -7.60967 1.07586 1.87434e-09 -2.72647e-10 1.52245e-09 3.22535e-09 -4.65404e-10 2.65165e-09 1.87433e-09 -2.72651e-10 1.52247e-09 -7.73091 5.47488 -0.417314 1.87434e-09 -2.72653e-10 1.52245e-09 -2.90554 0.965183 -0.102902 1.87433e-09 -2.72653e-10 1.52245e-09 -10.2786 0.731801 -0.0259123 1.87435e-09 -2.72651e-10 1.52244e-09 -2.22167 -0.733487 0.20892 -2.03217e-16 0.0 -3.88251e-19 3.42408 -1.45035 11.4543 -0.0537844 14.5497 0.237294 -0.41443 -20.833 0.0304005 2.03217e-16 0.0 3.88251e-19 6.19648 -29.4718 -1.44669 0.254151 35.0354 -0.426485 -1.69949 -9.36304 -8.59195
-185.637 82.7871 -14.0976 -15.1528 76.0264 -11.1642 3.0735 25.7386 -3.7607 3.40322 -2.18861 -0.58712 -3.1026 17.3831 5.71632 -2.13274 -50.1868 11.7429 -0.0 0.0 0.0 -0.0 0.0 0.0 -1.16921e-13 -1.9715e-13 3.34103e-13 85.4445 66.1653 -24.4374 -20.2031 -12.7255 40.0594 -0.00890795 -2.63033 -0.369943 2.58942e-09 6.23622e-10 -1.10299e-09 4.48234e-09 1.08001e-09 -1.91161e-09 2.58942e-09 6.23629e-10 -1.103e-09 7.73091 5.47488 0.417314 2.58941e-09 6.23629e-10 -1.10298e-09 2.90554 0.965183 0.102902 2.58942e-09 6.23629e-10 -1.10299e-09 10.2786 0.731801 0.0259123 2.58941e-09 6.23627e-10 -1.10298e-09 2.22167 -0.733487 -0.20892 -1.1683e-13 -1.97155e-13 3.33901e-13 -96.7437 35.5148 23.9413 21.9142 -14.9581 -44.8085 0.0850401 -8.03094 1.13669 1.41834e-09 -1.8668e-10 1.0142e-09 2.44289e-09 -3.18278e-10 1.77046e-09 1.41833e-09 -1.86684e-10 1.01422e-09 -7.73091 5.47488 -0.417314 1.41834e-09 -1.86685e-10 1.0142e-09 -2.90554 0.965183 -0.102902 1.41833e-09 -1.86685e-10 1.0142e-09 -10.2786 0.731801 -0.0259123 1.41835e-09 -1.86683e-10 1.01419e-09 -2.22167 -0.733487 0.20892 -2.03217e-16 0.0 -3.88251e-19 3.72513 -1.39887 12.2667 -0.0635148 15.7215 0.260503 -0.430329 -22.5402 -0.00827727 2.03217e-16 0.0 3.88251e-19 6.69987 -31.0458 -1.59163 0.288229 37.0169 -0.460356 -1.97098 -10.0496 -9.22655
-185.632 82.7892 -14.0857 -15.1644 76.0468 -11.1978 2.99598 25.5096 -3.68924 3.34955 -2.18437 -0.576196 -3.03499 17.3013 5.66088 -2.27802 -49.8692 11.5252 -0.0 0.0 0.0 -0.0 0.0 0.0 -8.22945e-14 1.17563e-13 1.62938e-13 84.4675 65.5848 -23.9496 -20.1156 -12.6784 39.742 -0.010616 -2.88322 -0.405569 3.52331e-09 5.76074e-10 -3.98841e-10 6.09151e-09 9.96474e-10 -6.91933e-10 3.52332e-09 5.76078e-10 -3.98853e-10 7.73091 5.47488 0.417314 3.52331e-09 5.76077e-10 -3.98838e-10 2.90554 0.965183 0.102902 3.52332e-09 5.76076e-10 -3.98844e-10 10.2786 0.731801 0.0259123 3.52331e-09 5.76075e-10 -3.98833e-10 2.22167 -0.733487 -0.20892 -8.22456e-14 1.17552e-13 1.62721e-13 -95.888 35.3542 23.7169 21.8389 -14.9234 -44.4592 0.0800914 -7.81397 1.10553 5.3743e-10 -2.97109e-11 9.92427e-11 9.30255e-10 -4.97628e-11 1.82808e-10 5.37424e-10 -2.97138e-11 9.92575e-11 -7.73091 5.47488 -0.417314 5.37428e-10 -2.97142e-11 9.92394e-11 -2.90554 0.965183 -0.102902 5.37423e-10 -2.97138e-11 9.92403e-11 -10.2786 0.731801 -0.0259123 5.37435e-10 -2.97103e-11 9.92333e-11 -2.22167 -0.733487 0.20892 -2.03217e-16 0.0 -3.88251e-19 3.70844 -1.37911 12.1873 -0.0617002 15.5957 0.257641 -0.451575 -22.2904 -0.0520558 2.03217e-16 0.0 3.88251e-19 6.64896 -30.84 -1.58179 0.284076 36.7821 -0.455788 -1.95696 -10.036 -9.1815
